<svg width="30" height="30" viewBox="0 0 30 30" fill="none" xmlns="http://www.w3.org/2000/svg">
<path d="M26.7906 5.72637C24.7546 3.14121 21.8871 1.27236 18.7164 0.464063C18.4811 0.404063 18.2419 0.546211 18.1821 0.781348C18.1221 1.01654 18.2641 1.25578 18.4993 1.31572C18.6373 1.35088 18.7745 1.38896 18.9113 1.42834C18.9 2.05242 18.8689 2.65418 18.818 3.22307C18.2818 3.54457 16.6453 4.4867 15 5.03947C13.357 4.48734 11.7186 3.54457 11.182 3.22295C11.1313 2.65518 11.1002 2.05459 11.0889 1.43162C12.3557 1.06805 13.6753 0.878906 15 0.878906C15.4546 0.878906 15.9133 0.900762 16.3634 0.943828C16.6053 0.967266 16.8196 0.789844 16.8427 0.548262C16.8659 0.306621 16.6887 0.0920508 16.4471 0.0689062C15.9693 0.0232031 15.4824 0 15 0C12.5923 0 10.1986 0.584238 8.07756 1.68949C6.0252 2.759 4.21975 4.31631 2.85639 6.19295C2.71377 6.38936 2.75736 6.66416 2.95365 6.80678C3.03164 6.86344 3.12205 6.89074 3.21158 6.89074C3.34746 6.89074 3.48146 6.82793 3.56742 6.70957C4.26457 5.74992 5.08529 4.87992 5.99848 4.12307C6.48979 4.4816 6.95273 4.84336 7.37918 5.20266C7.33482 5.82674 7.16736 7.70959 6.67729 9.37207C5.28264 10.4012 3.57059 11.2025 2.99936 11.4577C2.53898 11.193 2.06467 10.8978 1.58414 10.5773C1.81594 9.87598 2.10334 9.19025 2.4484 8.52299C2.55984 8.30742 2.47547 8.04229 2.2599 7.93078C2.04428 7.81934 1.77914 7.90365 1.6677 8.11928C0.576738 10.2294 0 12.6086 0 15C0 19.0066 1.56029 22.7735 4.39336 25.6066C7.22654 28.4397 10.9934 30 15 30C19.0066 30 22.7735 28.4397 25.6066 25.6066C28.4397 22.7735 30 19.0066 30 15C30 11.599 28.8902 8.39227 26.7906 5.72637ZM26.1001 6.27018C27.133 7.58162 27.9108 9.03234 28.4186 10.5755C27.9373 10.8966 27.462 11.1925 27.0006 11.4577C26.4296 11.2029 24.7192 10.4027 23.3227 9.37207C22.8326 7.70953 22.6651 5.82674 22.6208 5.20266C23.047 4.84353 23.5099 4.48189 24.001 4.12342C24.7718 4.76057 25.4774 5.47951 26.1001 6.27018ZM15.4395 5.8176C17.4749 5.10574 19.385 3.90838 19.4692 3.85529C19.5837 3.78305 19.6586 3.66199 19.672 3.52723C19.7294 2.95213 19.7668 2.34352 19.784 1.71158C21.0283 2.16141 22.2062 2.78742 23.2784 3.56396C22.7805 3.9341 22.3123 4.30729 21.8817 4.67754C21.7791 4.76584 21.7228 4.89662 21.7293 5.03191C21.7341 5.1317 21.8496 7.40145 22.4402 9.4841C21.1077 10.5788 19.7527 11.4956 19.2272 11.8419C18.6408 11.4911 17.0811 10.6015 15.4394 10.0274V5.8176H15.4395ZM6.71947 3.56232C7.28027 3.15504 7.8702 2.78865 8.48373 2.46891C9.0426 2.1777 9.62215 1.92639 10.216 1.71334C10.2333 2.34475 10.2707 2.95271 10.3279 3.52717C10.3413 3.66193 10.4162 3.78299 10.5308 3.85529C10.6149 3.90838 12.5251 5.10574 14.5605 5.8176V10.0273C12.9188 10.6014 11.359 11.4911 10.7727 11.8419C10.2472 11.4956 8.89225 10.5787 7.55971 9.48404C8.15033 7.40139 8.2657 5.1317 8.27057 5.03186C8.27707 4.89656 8.22082 4.76578 8.11816 4.67748C7.68703 4.30664 7.21811 3.93293 6.71947 3.56232ZM0.878906 15C0.878906 13.7872 1.02938 12.6043 1.32504 11.4595C1.81219 11.7778 2.2926 12.0701 2.75871 12.3317C2.82527 12.3691 2.89939 12.3879 2.97381 12.3879C3.03146 12.3879 3.0893 12.3766 3.14379 12.3537C3.2352 12.3154 5.29424 11.4448 7.04004 10.1945C8.41553 11.3214 9.77613 12.2393 10.3031 12.5854C10.2434 13.2935 10.113 15.282 10.3043 17.4433C9.78844 17.8247 8.3884 18.8896 7.01824 20.1891C5.27719 18.9472 3.23479 18.0838 3.14379 18.0456C3.01975 17.9936 2.87889 18.0012 2.76111 18.0663C2.73469 18.0809 2.20236 18.3763 1.41768 18.8835C1.06301 17.6363 0.878906 16.3324 0.878906 15ZM10.3283 26.8694C10.3253 26.8969 10.2681 27.4444 10.2326 28.2998C9.08619 27.8897 7.99676 27.3296 6.98736 26.6312C7.67713 26.1049 8.09912 25.7385 8.12033 25.72C8.2217 25.6317 8.27713 25.5018 8.27062 25.3675C8.2698 25.3508 8.25018 24.9514 8.18525 24.3346C8.15982 24.0932 7.94373 23.918 7.70221 23.9435C7.46086 23.9689 7.28578 24.1852 7.31115 24.4266C7.3459 24.7564 7.36723 25.0237 7.37936 25.1958C7.17123 25.3696 6.7749 25.6928 6.25125 26.0858C5.82152 25.7453 5.40838 25.3785 5.01486 24.985C3.51094 23.4811 2.38816 21.6977 1.69477 19.7519C2.28205 19.3662 2.75391 19.0847 3.00006 18.9418C3.57152 19.1969 5.28123 19.9968 6.67729 21.0271C6.79764 21.4354 6.90715 21.886 7.00336 22.369C7.04502 22.578 7.22854 22.7227 7.43391 22.7227C7.46232 22.7227 7.49127 22.7199 7.52022 22.7141C7.75828 22.6667 7.91279 22.4353 7.86539 22.1972C7.77287 21.7327 7.66805 21.2958 7.55326 20.8932C8.86395 19.6417 10.2499 18.5799 10.788 18.1793C11.3858 18.5362 12.9329 19.4155 14.5606 19.9847V24.5816C12.5252 25.2935 10.615 26.4908 10.5309 26.5439C10.417 26.6158 10.3424 26.7357 10.3283 26.8694ZM15 29.1211C13.6624 29.1211 12.3534 28.9355 11.1018 28.578C11.1234 27.9394 11.16 27.4416 11.1826 27.1758C11.7193 26.854 13.3552 25.9124 15 25.3597C16.6423 25.9116 18.2801 26.8539 18.8174 27.176C18.84 27.4416 18.8766 27.9394 18.8983 28.578C17.6466 28.9355 16.3376 29.1211 15 29.1211ZM19.7674 28.2998C19.7319 27.4443 19.6747 26.8969 19.6717 26.8694C19.6576 26.7356 19.5829 26.6157 19.4692 26.544C19.385 26.4909 17.4749 25.2936 15.4395 24.5817V19.9848C17.0671 19.4156 18.6143 18.5362 19.212 18.1794C19.7498 18.5796 21.1348 19.6404 22.4466 20.893C21.8504 22.9817 21.7342 25.2673 21.7294 25.3674C21.7229 25.5017 21.7783 25.6317 21.8797 25.72C21.9009 25.7384 22.3229 26.1049 23.0127 26.6311C22.0033 27.3297 20.9139 27.8898 19.7674 28.2998ZM24.9851 24.9851C24.5916 25.3787 24.1785 25.7454 23.7488 26.0859C23.2252 25.693 22.829 25.3698 22.6208 25.1961C22.6653 24.5713 22.8328 22.6892 23.3227 21.0273C24.717 19.9985 26.4284 19.1974 27.0002 18.942C27.246 19.0847 27.7172 19.3656 28.3053 19.752C27.6118 21.6977 26.4891 23.4812 24.9851 24.9851ZM27.2389 18.0663C27.1212 18.0012 26.9802 17.9937 26.8563 18.0456C26.7653 18.0838 24.7229 18.9472 22.9818 20.1892C21.611 18.889 20.2104 17.8239 19.695 17.4429C19.7315 17.0293 19.7589 16.5988 19.7753 16.1572C19.7842 15.9147 19.595 15.7107 19.3524 15.7018C19.1103 15.6921 18.9059 15.8821 18.897 16.1246C18.8808 16.5598 18.8542 16.9846 18.818 17.3904C18.2818 17.712 16.6453 18.654 15 19.2069C13.357 18.6547 11.7186 17.712 11.182 17.3904C10.9924 15.2682 11.1285 13.2648 11.1827 12.6214C11.7196 12.2995 13.3554 11.358 15 10.8054C16.6424 11.3574 18.2803 12.2998 18.8174 12.6216C18.8381 12.8639 18.8704 13.2986 18.8923 13.8562C18.9018 14.0987 19.105 14.2877 19.3486 14.2781C19.5912 14.2686 19.78 14.0643 19.7705 13.8217C19.7489 13.2718 19.718 12.8432 19.6965 12.5856C20.2233 12.2396 21.5842 11.3215 22.9599 10.1946C24.7058 11.4449 26.7648 12.3155 26.8562 12.3538C26.9108 12.3767 26.9685 12.388 27.0262 12.388C27.1006 12.388 27.1747 12.3691 27.2413 12.3318C27.7082 12.0697 28.1894 11.7768 28.6772 11.4581C28.9709 12.6007 29.121 13.7872 29.121 15.0001C29.121 16.3324 28.9369 17.6363 28.5823 18.8836C27.7976 18.3763 27.2654 18.0809 27.2389 18.0663Z" fill="#E5E5E5"/>
</svg>
