<svg width="35" height="28" viewBox="0 0 35 28" fill="none" xmlns="http://www.w3.org/2000/svg">
<path d="M11.3477 0C8.00898 0 5.97734 1.95313 1.02539 1.95313C0.459375 1.95313 0 2.39063 0 2.92969V23.4063C5.75723 23.6908 7.79092 21.4844 11.3477 21.4844C13.2542 21.4844 15.0849 22.6374 16.4746 23.8711V2.38542C15.0213 1.10417 13.2118 0 11.3477 0ZM12.373 16.6016H4.16992C3.60391 16.6016 3.14453 16.1641 3.14453 15.625C3.14453 15.0859 3.60391 14.6484 4.16992 14.6484H12.373C12.9391 14.6484 13.3984 15.0859 13.3984 15.625C13.3984 16.1641 12.9391 16.6016 12.373 16.6016ZM12.373 12.6953H4.16992C3.60391 12.6953 3.14453 12.2578 3.14453 11.7188C3.14453 11.1797 3.60391 10.7422 4.16992 10.7422H12.373C12.9391 10.7422 13.3984 11.1797 13.3984 11.7188C13.3984 12.2578 12.9391 12.6953 12.373 12.6953ZM12.373 8.78906H4.16992C3.60391 8.78906 3.14453 8.35156 3.14453 7.8125C3.14453 7.27344 3.60391 6.83594 4.16992 6.83594H12.373C12.9391 6.83594 13.3984 7.27344 13.3984 7.8125C13.3984 8.35156 12.9391 8.78906 12.373 8.78906ZM11.3477 23.4375C8.38496 23.4375 5.9876 25.6517 0 25.3704V26.3672C0 26.9063 0.459375 27.3438 1.02539 27.3438H16.4746V26.7044C15.5333 25.6035 13.2822 23.4375 11.3477 23.4375ZM23.6523 23.4375C21.7103 23.4375 19.4633 25.6029 18.5254 26.7038V27.3438H33.9746C34.5406 27.3438 35 26.9063 35 26.3672V25.3672C28.9934 25.6475 26.6174 23.4375 23.6523 23.4375ZM33.9746 1.95313C29.022 1.95313 26.9924 0 23.6523 0C21.7889 0 19.9801 1.10286 18.5254 2.38542V23.8711C19.9155 22.6373 21.746 21.4844 23.6523 21.4844C27.2193 21.4844 29.2817 23.7064 35 23.4128V2.92969C35 2.39063 34.5406 1.95313 33.9746 1.95313ZM30.8301 16.6016H22.627C22.0609 16.6016 21.6016 16.1641 21.6016 15.625C21.6016 15.0859 22.0609 14.6484 22.627 14.6484H30.8301C31.3961 14.6484 31.8555 15.0859 31.8555 15.625C31.8555 16.1641 31.3961 16.6016 30.8301 16.6016ZM30.8301 12.6953H22.627C22.0609 12.6953 21.6016 12.2578 21.6016 11.7188C21.6016 11.1797 22.0609 10.7422 22.627 10.7422H30.8301C31.3961 10.7422 31.8555 11.1797 31.8555 11.7188C31.8555 12.2578 31.3961 12.6953 30.8301 12.6953ZM30.8301 8.78906H22.627C22.0609 8.78906 21.6016 8.35156 21.6016 7.8125C21.6016 7.27344 22.0609 6.83594 22.627 6.83594H30.8301C31.3961 6.83594 31.8555 7.27344 31.8555 7.8125C31.8555 8.35156 31.3961 8.78906 30.8301 8.78906Z" fill="#E5E5E5"/>
</svg>
