<svg width="35" height="30" viewBox="0 0 35 30" fill="none" xmlns="http://www.w3.org/2000/svg">
<path d="M1.75037 29.1454L4.02332 27.2361L5.47329 28.4543C5.86021 28.7791 6.48159 28.7915 6.8864 28.4839L21.3885 17.4621L22.149 18.1009C22.549 18.4369 23.1987 18.4371 23.5989 18.1009L26.4989 15.6647C26.5734 15.6021 26.634 15.5324 26.6807 15.4581C28.4527 15.3112 30.1398 14.7372 31.5332 13.8032L32.2993 14.4468C32.6995 14.783 33.3487 14.7832 33.7492 14.4468C34.1495 14.1103 34.1495 13.565 33.7492 13.2288L32.9839 12.5859C35.8745 9.55625 35.666 5.0944 32.299 2.26637C28.9462 -0.549994 23.6342 -0.741326 20.0143 1.69148L19.2488 1.0484C18.8485 0.712165 18.1991 0.712165 17.7988 1.0484C17.3983 1.38485 17.3983 1.93014 17.7988 2.26637L18.5646 2.9099C17.4527 4.08032 16.7694 5.49769 16.5948 6.98618C16.5048 7.0261 16.4217 7.07724 16.3486 7.1387L13.4486 9.57465C13.0481 9.9111 13.0481 10.4564 13.4486 10.7926L14.2089 11.4314L1.08788 23.6132C0.721512 23.9537 0.736732 24.4756 1.12312 24.8002L2.57336 26.0182L0.300407 27.9274C-0.100136 28.2639 -0.100136 28.8092 0.300407 29.1454C0.700683 29.4819 1.34983 29.4819 1.75037 29.1454ZM30.849 3.48456C33.42 5.64416 33.6125 9.01815 31.5225 11.3583L21.4755 2.91887C24.259 1.16481 28.2762 1.32317 30.849 3.48456ZM30.0714 12.5754C28.8161 13.3622 27.2791 13.7866 25.6967 13.7727L18.601 7.81251C18.5844 6.48306 19.0896 5.19197 20.0266 4.13796L30.0714 12.5754ZM17.0738 8.96566L24.3239 15.0557L22.8739 16.2739L15.6236 10.1836L17.0738 8.96566ZM9.27871 24.3426L6.01803 21.6036L15.6607 12.651L19.9366 16.2425L9.27871 24.3426ZM4.64043 22.8824L7.75638 25.4998L6.23379 26.6568L3.26309 24.1614L4.64043 22.8824Z" fill="#E5E5E5"/>
</svg>
