<svg width="20" height="31" viewBox="0 0 20 31" fill="none" xmlns="http://www.w3.org/2000/svg">
<path d="M19.5833 19.4831C18.931 18.7588 17.9392 18.6763 17.1272 19.2559C16.1677 19.9405 14.7637 20.8202 13.6066 21.3931C13.2273 20.2655 13.0631 18.7592 12.7575 17.542L12.7833 10.5806C12.7833 10.5806 17.0255 10.0816 18.2498 9.91617C19.5542 9.80783 19.7539 8.78574 19.4762 8.06807C19.4089 7.89357 17.7046 3.5473 17.4076 2.70739C17.1159 1.88329 16.3302 1.39382 15.3206 1.64647C14.3853 1.88042 14.1039 2.68438 14.3891 3.50943C14.7868 4.66335 15.8459 7.45204 15.8459 7.45204L12.1294 7.89884L6.12052 6.7478C4.59057 5.30096 3.60577 3.68777 3.24844 1.35403C3.11714 0.497338 2.51011 -0.102396 1.4123 0.0145788C0.449555 0.117171 -0.112806 0.920171 0.0190398 1.77639C0.557722 5.29856 2.3379 8.27805 5.0593 10.2594V17.1508C3.1914 21.4056 3.16934 25.7964 5.92302 29.694C6.28142 30.2002 6.89276 30.4778 7.51754 30.4778C7.86088 30.4778 8.20744 30.3929 8.51903 30.2199C9.39782 29.7256 9.66258 28.6915 9.10883 27.9072C7.5832 25.7489 6.87607 23.1295 7.63916 20.081C7.76186 19.5905 8.26018 19.2463 8.82415 19.2645H8.82577C9.35692 19.2813 9.80735 19.614 9.9252 20.0752C10.2605 21.3797 10.4262 22.6506 10.6797 23.444C11.1764 24.9953 12.913 25.27 14.0183 24.7523C16.2656 23.7 17.6691 22.9449 19.2884 21.8394C20.1144 21.2761 20.2328 20.2046 19.5833 19.4831Z" fill="#E5E5E5"/>
</svg>
